<svg width="30" height="30" viewBox="0 0 30 30" fill="none" xmlns="http://www.w3.org/2000/svg">
<path d="M3.75 8.75H26.25C26.5815 8.75 26.8995 8.6183 27.1339 8.38388C27.3683 8.14946 27.5 7.83152 27.5 7.5C27.5 7.16848 27.3683 6.85054 27.1339 6.61612C26.8995 6.3817 26.5815 6.25 26.25 6.25H3.75C3.41848 6.25 3.10054 6.3817 2.86612 6.61612C2.6317 6.85054 2.5 7.16848 2.5 7.5C2.5 7.83152 2.6317 8.14946 2.86612 8.38388C3.10054 8.6183 3.41848 8.75 3.75 8.75ZM26.25 21.25H3.75C3.41848 21.25 3.10054 21.3817 2.86612 21.6161C2.6317 21.8505 2.5 22.1685 2.5 22.5C2.5 22.8315 2.6317 23.1495 2.86612 23.3839C3.10054 23.6183 3.41848 23.75 3.75 23.75H26.25C26.5815 23.75 26.8995 23.6183 27.1339 23.3839C27.3683 23.1495 27.5 22.8315 27.5 22.5C27.5 22.1685 27.3683 21.8505 27.1339 21.6161C26.8995 21.3817 26.5815 21.25 26.25 21.25ZM26.25 16.25H3.75C3.41848 16.25 3.10054 16.3817 2.86612 16.6161C2.6317 16.8505 2.5 17.1685 2.5 17.5C2.5 17.8315 2.6317 18.1495 2.86612 18.3839C3.10054 18.6183 3.41848 18.75 3.75 18.75H26.25C26.5815 18.75 26.8995 18.6183 27.1339 18.3839C27.3683 18.1495 27.5 17.8315 27.5 17.5C27.5 17.1685 27.3683 16.8505 27.1339 16.6161C26.8995 16.3817 26.5815 16.25 26.25 16.25ZM26.25 11.25H3.75C3.41848 11.25 3.10054 11.3817 2.86612 11.6161C2.6317 11.8505 2.5 12.1685 2.5 12.5C2.5 12.8315 2.6317 13.1495 2.86612 13.3839C3.10054 13.6183 3.41848 13.75 3.75 13.75H26.25C26.5815 13.75 26.8995 13.6183 27.1339 13.3839C27.3683 13.1495 27.5 12.8315 27.5 12.5C27.5 12.1685 27.3683 11.8505 27.1339 11.6161C26.8995 11.3817 26.5815 11.25 26.25 11.25Z" fill="black"/>
</svg>
